<?xml version="1.0" standalone="no"?><!DOCTYPE svg PUBLIC "-//W3C//DTD SVG 1.1//EN" "http://www.w3.org/Graphics/SVG/1.1/DTD/svg11.dtd"><svg class="icon" width="200px" height="199.61px" viewBox="0 0 1026 1024" version="1.1" xmlns="http://www.w3.org/2000/svg"><path d="M510.516585 539.738554L287.347906 412.109408V148.099403L510.516585 21.199566l223.897988 126.899837v262.551386L510.516585 539.738554z m0 0" fill="#3e75ff" /><path d="M510.516585 558.700599a20.420663 20.420663 0 0 1-8.751713 0L277.866884 428.883524a20.420663 20.420663 0 0 1-8.751713-16.774116V148.099403a18.962045 18.962045 0 0 1 9.481022-16.044807L501.764872 2.237521a18.232735 18.232735 0 0 1 17.503426 0l224.627297 131.275693a19.691354 19.691354 0 0 1 8.751713 16.044807v262.551387a18.962045 18.962045 0 0 1-9.481023 16.774116L518.538988 555.783361a18.232735 18.232735 0 0 1-8.751713 0zM305.580641 401.899076L510.516585 518.588581l205.665252-117.418814v-240.672104L510.516585 42.349539 304.851332 160.497663z m0 0" fill="#3e75ff" /><path d="M510.516585 477.017945l174.304948-97.72746V184.564873L510.516585 281.563024z m0 0M241.401414 1003.579337L18.962045 877.408809V613.398804l223.168678-128.358456 223.897988 128.358456v264.010005l-224.627297 126.170528z m0 0" fill="#3e75ff" /><path d="M241.401414 1023.270691a17.503426 17.503426 0 0 1-8.751713 0l-223.168679-131.275694a18.962045 18.962045 0 0 1-9.481022-14.586188V613.398804a18.232735 18.232735 0 0 1 9.481022-16.044807L233.37901 468.995542a15.315498 15.315498 0 0 1 17.503426 0l223.897988 128.358455a18.232735 18.232735 0 0 1 9.481022 16.044807v264.010005a18.232735 18.232735 0 0 1-9.481022 16.044807l-224.627298 129.817075a17.503426 17.503426 0 0 1-8.751712 0z m-204.206634-158.260142l204.206634 117.418815 206.394562-117.418815v-240.672104L242.130723 506.190321 36.46547 624.338445v240.672104z m0 0" fill="#3e75ff" /><path d="M242.860032 940.129418l173.575639-96.998151V648.405656l-173.575639 96.998151z m0 0M777.443828 1003.579337l-222.43937-126.170528V613.398804l223.897988-128.358456 223.897988 128.358456v264.010005z m0 0" fill="#3e75ff" /><path d="M777.443828 1023.270691a19.691354 19.691354 0 0 1-8.751713 0l-218.792822-127.629147a18.232735 18.232735 0 0 1-13.12757-18.232735V613.398804a18.232735 18.232735 0 0 1 9.481023-16.044807l223.168678-128.358455a15.315498 15.315498 0 0 1 17.503426 0l224.627297 128.358455a18.962045 18.962045 0 0 1 8.751713 16.044807v264.010005a18.962045 18.962045 0 0 1-8.751713 16.044807l-225.356607 129.817075a17.503426 17.503426 0 0 1-8.751712 0z m-204.206634-156.801523l204.206634 117.418815 206.394562-117.418815V624.338445L778.173137 506.190321 572.507884 624.338445z m0 0" fill="#3e75ff" /><path d="M778.902446 940.129418l173.575639-96.998151V648.405656l-173.575639 96.998151v194.725611z m0 0" fill="#3e75ff" /></svg>