<?xml version="1.0" standalone="no"?><!DOCTYPE svg PUBLIC "-//W3C//DTD SVG 1.1//EN" "http://www.w3.org/Graphics/SVG/1.1/DTD/svg11.dtd"><svg class="icon" width="200px" height="200.00px" viewBox="0 0 1024 1024" version="1.1" xmlns="http://www.w3.org/2000/svg"><path d="M32 32h128v128H32zM864 32h128v128h-128zM864 864h128v128h-128zM32 864h128v128H32z" fill="#E0EBFE" /><path d="M992 192a32 32 0 0 0 32-32V32a32 32 0 0 0-32-32h-128a32 32 0 0 0-32 32v32H192V32a32 32 0 0 0-32-32H32a32 32 0 0 0-32 32v128a32 32 0 0 0 32 32h32v640H32a32 32 0 0 0-32 32v128a32 32 0 0 0 32 32h128a32 32 0 0 0 32-32v-32h640v32a32 32 0 0 0 32 32h128a32 32 0 0 0 32-32v-128a32 32 0 0 0-32-32h-32V192h32zM64 64h64v64H64V64z m64 896H64v-64h64v64z m704-96v32H192v-32a32 32 0 0 0-32-32H128V192h32a32 32 0 0 0 32-32V128h640v32a32 32 0 0 0 32 32h32v640h-32a32 32 0 0 0-32 32z m128 96h-64v-64h64v64zM896 128V64h64v64h-64z" fill="#5465CF" /></svg>