<?xml version="1.0" standalone="no"?><!DOCTYPE svg PUBLIC "-//W3C//DTD SVG 1.1//EN" "http://www.w3.org/Graphics/SVG/1.1/DTD/svg11.dtd"><svg class="icon" width="200px" height="200.00px" viewBox="0 0 1024 1024" version="1.1" xmlns="http://www.w3.org/2000/svg"><path d="M896 1024H128c-70.4 0-128-57.6-128-128V128c0-70.4 57.6-128 128-128h768c70.4 0 128 57.6 128 128v768c0 70.4-57.6 128-128 128z" fill="#1296db" /><path d="M361.6 364.8c6.4-6.4 6.4-16 3.2-22.4-6.4-6.4-16-6.4-22.4-3.2l-147.2 118.4c-9.6 9.6-19.2 22.4-19.2 38.4s6.4 28.8 19.2 38.4l147.2 118.4c3.2 3.2 6.4 3.2 9.6 3.2 3.2 0 9.6-3.2 12.8-6.4 6.4-6.4 3.2-16-3.2-22.4l-147.2-118.4c-3.2-3.2-6.4-6.4-6.4-12.8s3.2-9.6 6.4-12.8l147.2-118.4zM828.8 457.6l-147.2-118.4c-6.4-6.4-16-3.2-22.4 3.2-6.4 6.4-3.2 16 3.2 22.4l147.2 118.4c3.2 3.2 6.4 6.4 6.4 12.8s-3.2 9.6-6.4 12.8l-147.2 118.4c-6.4 6.4-6.4 16-3.2 22.4 3.2 3.2 6.4 6.4 12.8 6.4 3.2 0 6.4 0 9.6-3.2l147.2-118.4c9.6-9.6 19.2-22.4 19.2-38.4s-9.6-28.8-19.2-38.4zM588.8 240c-9.6-3.2-16 3.2-19.2 9.6l-144 496c-3.2 9.6 3.2 16 9.6 19.2h3.2c6.4 0 12.8-3.2 16-12.8L598.4 256c3.2-3.2 0-12.8-9.6-16z" fill="#FFFFFF" /></svg>